<svg width="120" height="120" viewBox="0 0 120 120" fill="none" xmlns="http://www.w3.org/2000/svg">
<path d="M60.0059 1.4834C92.3219 1.48351 118.52 27.681 118.52 59.9971C118.519 92.313 92.3218 118.511 60.0059 118.511C27.6898 118.511 1.4923 92.3131 1.49219 59.9971C1.49219 27.681 27.6898 1.4834 60.0059 1.4834Z" fill="#393939" stroke="white"/>
<path d="M96.4453 101.931V105.141C86.4853 113.195 73.8061 118.018 59.9994 118.018C46.1939 118.018 33.5133 113.195 23.5547 105.144V101.931C23.5547 84.5879 37.6139 70.5275 54.9566 70.5275H65.0434C82.3861 70.5277 96.4453 84.5882 96.4453 101.931Z" fill="#F3F7F6"/>
<path d="M60.0112 62.0448C70.6536 62.0448 79.2811 53.4173 79.2811 42.7748C79.2811 32.1323 70.6536 23.5049 60.0112 23.5049C49.3687 23.5049 40.7412 32.1323 40.7412 42.7748C40.7412 53.4173 49.3687 62.0448 60.0112 62.0448Z" fill="#F3F7F6"/>
<path d="M60.0001 120C51.901 120 44.043 118.413 36.6447 115.284C29.4997 112.262 23.0832 107.936 17.5735 102.427C12.0639 96.9168 7.73801 90.5004 4.71583 83.3555C1.58659 75.9571 0 68.0992 0 60.0001C0 51.9009 1.58659 44.0431 4.71583 36.6447C7.73801 29.4997 12.0639 23.0832 17.5735 17.5735C23.0832 12.0638 29.4997 7.73787 36.6447 4.71584C44.043 1.5866 51.901 0 60.0001 0C68.0992 0 75.957 1.5866 83.3553 4.71584C90.5005 7.73787 96.9168 12.0638 102.427 17.5735C107.936 23.0832 112.262 29.4995 115.284 36.6447C118.413 44.043 120 51.9009 120 60.0001C120 68.0992 118.413 75.957 115.284 83.3555C112.262 90.5004 107.936 96.917 102.427 102.427C96.9168 107.936 90.5005 112.262 83.3553 115.284C75.957 118.413 68.0993 120 60.0001 120ZM60.0001 3.97293C52.4356 3.97293 45.0983 5.45399 38.1924 8.37497C31.5208 11.1967 25.5289 15.2368 20.3829 20.3828C15.2367 25.5288 11.1967 31.5208 8.37497 38.1922C5.45399 45.0982 3.97292 52.4353 3.97292 59.9999C3.97292 67.5644 5.45399 74.9016 8.37497 81.8075C11.1967 88.479 15.2367 94.4709 20.3829 99.6169C25.529 104.763 31.5208 108.803 38.1924 111.625C45.0983 114.546 52.4356 116.027 60.0001 116.027C67.5645 116.027 74.9017 114.546 81.8078 111.625C88.4791 108.803 94.4711 104.763 99.6171 99.6169C104.763 94.4709 108.803 88.4789 111.625 81.8075C114.546 74.9016 116.027 67.5644 116.027 59.9999C116.027 52.4355 114.546 45.0983 111.625 38.1922C108.803 31.5207 104.763 25.5288 99.6171 20.3828C94.471 15.2367 88.4791 11.1967 81.8078 8.37497C74.9017 5.45399 67.5645 3.97293 60.0001 3.97293Z" fill="white"/>
</svg>
