<svg width="150" height="150" viewBox="0 0 150 150" fill="none" xmlns="http://www.w3.org/2000/svg">
<path d="M75.0068 1.97925C115.333 1.97925 148.023 34.6699 148.023 74.9958C148.023 115.322 115.333 148.012 75.0068 148.012C34.6809 148.012 1.99023 115.322 1.99023 74.9958C1.99035 34.67 34.6809 1.97938 75.0068 1.97925Z" fill="#393939" stroke="white"/>
<path d="M120.557 127.414V131.426C108.107 141.493 92.2576 147.522 74.9992 147.522C57.7424 147.522 41.8916 141.493 29.4434 131.429V127.413C29.4434 105.735 47.0174 88.1593 68.6957 88.1593H81.3043C102.983 88.1597 120.557 105.735 120.557 127.414Z" fill="#F3F7F6"/>
<path d="M75.0142 77.556C88.3173 77.556 99.1016 66.7717 99.1016 53.4685C99.1016 40.1654 88.3173 29.3811 75.0142 29.3811C61.7111 29.3811 50.9268 40.1654 50.9268 53.4685C50.9268 66.7717 61.7111 77.556 75.0142 77.556Z" fill="#F3F7F6"/>
<path d="M75.0001 150C64.8762 150 55.0538 148.017 45.8058 144.105C36.8746 140.328 28.854 134.92 21.9669 128.033C15.0799 121.146 9.67251 113.126 5.89479 104.194C1.98324 94.9464 0 85.124 0 75.0001C0 64.8762 1.98324 55.0539 5.89479 45.8058C9.67251 36.8746 15.0799 28.854 21.9669 21.9668C28.854 15.0797 36.8746 9.67234 45.8058 5.8948C55.0538 1.98324 64.8762 0 75.0001 0C85.124 0 94.9462 1.98324 104.194 5.8948C113.126 9.67234 121.146 15.0797 128.033 21.9668C134.92 28.854 140.327 36.8744 144.105 45.8058C148.017 55.0537 150 64.8762 150 75.0001C150 85.124 148.017 94.9462 144.105 104.194C140.327 113.126 134.92 121.146 128.033 128.033C121.146 134.92 113.126 140.328 104.194 144.105C94.9462 148.017 85.1241 150 75.0001 150ZM75.0001 4.96616C65.5445 4.96616 56.3729 6.81749 47.7404 10.4687C39.4011 13.9959 31.9111 19.046 25.4786 25.4785C19.0459 31.9111 13.9959 39.4011 10.4687 47.7403C6.81749 56.3727 4.96616 65.5442 4.96616 74.9999C4.96616 84.4555 6.81749 93.6269 10.4687 102.259C13.9959 110.599 19.0459 118.089 25.4786 124.521C31.9112 130.954 39.4011 136.004 47.7404 139.531C56.3729 143.182 65.5445 145.033 75.0001 145.033C84.4557 145.033 93.6271 143.182 102.26 139.531C110.599 136.004 118.089 130.954 124.521 124.521C130.954 118.089 136.004 110.599 139.531 102.259C143.182 93.6269 145.034 84.4555 145.034 74.9999C145.034 65.5443 143.182 56.3729 139.531 47.7403C136.004 39.4009 130.954 31.9111 124.521 25.4785C118.089 19.0459 110.599 13.9959 102.26 10.4687C93.6271 6.81749 84.4557 4.96616 75.0001 4.96616Z" fill="white"/>
</svg>
