<svg width="946" height="151" viewBox="0 0 946 151" fill="none" xmlns="http://www.w3.org/2000/svg">
<path d="M0 147.443V1.98828H17.6136V131.818H85.2273V147.443H0Z" fill="#F3F7F6"/>
<path d="M130.114 1.98828V147.443H112.5V1.98828H130.114Z" fill="#F3F7F6"/>
<path d="M261.584 119.68H263.004V109.214L280.334 109.285V150.646H263.288L184.026 36.4404H182.606V150.646H164.993V5.19043H182.038L261.584 119.68ZM280.334 41.2891L263.004 41.2188V5.19043H280.334V41.2891Z" fill="#F3F7F6"/>
<path d="M333.628 109.443V131.818H404.935V147.443H316.014V109.443H333.628ZM403.798 17.6133H333.628V41.4434H316.014V1.98828H403.798V17.6133Z" fill="#F3F7F6"/>
<path d="M534.1 109.443C533.855 116.714 531.804 123.32 527.946 129.262C523.874 135.606 517.908 140.649 510.048 144.39C502.235 148.13 492.742 150 481.568 150C471.152 150 462.132 148.319 454.509 144.957C446.933 141.595 440.966 136.908 436.61 130.895C432.302 124.881 429.863 117.898 429.295 109.943H447.478C447.951 115.435 449.797 119.981 453.017 123.579C456.284 127.13 460.403 129.782 465.375 131.534C470.394 133.239 475.792 134.091 481.568 134.091C488.292 134.091 494.328 133.002 499.679 130.824C505.029 128.599 509.267 125.521 512.392 121.591C515.163 118.063 516.705 114.014 517.019 109.443H534.1ZM482.988 0C492.363 0 500.697 1.68126 507.988 5.04297C515.28 8.35735 521.057 12.9022 525.318 18.6787C529.627 24.4552 531.9 31.0135 532.137 38.3525H515.091C514.239 31.1556 510.782 25.5681 504.722 21.5908C498.661 17.6136 491.228 15.6251 482.421 15.625C475.982 15.625 470.346 16.6667 465.517 18.75C460.735 20.8333 456.995 23.6981 454.296 27.3438C451.644 30.9895 450.318 35.1324 450.318 39.7725C450.318 40.3411 450.34 40.8981 450.38 41.4434H433.281C433.276 41.172 433.272 40.8993 433.272 40.625C433.272 32.4811 435.475 25.379 439.878 19.3184C444.329 13.2104 450.294 8.47502 457.775 5.11328C465.304 1.70424 473.708 3.73692e-05 482.988 0Z" fill="#F3F7F6"/>
<path d="M618.483 109.443V147.443H600.869V109.443H618.483ZM664.222 17.6133H618.483V41.4434H600.869V17.6133H555.131V1.98828H664.222V17.6133Z" fill="#F3F7F6"/>
<path d="M808.079 74.7159C808.079 90.0568 805.309 103.314 799.769 114.489C794.23 125.663 786.63 134.28 776.971 140.341C767.312 146.402 756.28 149.432 743.874 149.432C731.469 149.432 720.437 146.402 710.778 140.341C701.119 134.28 693.519 125.663 687.98 114.489C682.44 103.314 679.67 90.0568 679.67 74.7159C679.67 59.375 682.44 46.1174 687.98 34.9432C693.519 23.7689 701.119 15.1515 710.778 9.09091C720.437 3.0303 731.469 0 743.874 0C756.28 0 767.312 3.0303 776.971 9.09091C786.63 15.1515 794.23 23.7689 799.769 34.9432C805.309 46.1174 808.079 59.375 808.079 74.7159ZM791.034 74.7159C791.034 62.1212 788.927 51.4915 784.713 42.8267C780.546 34.1619 774.888 27.6042 767.738 23.1534C760.636 18.7027 752.681 16.4773 743.874 16.4773C735.068 16.4773 727.089 18.7027 719.94 23.1534C712.838 27.6042 707.179 34.1619 702.965 42.8267C698.799 51.4915 696.715 62.1212 696.715 74.7159C696.715 87.3106 698.799 97.9403 702.965 106.605C707.179 115.27 712.838 121.828 719.94 126.278C727.089 130.729 735.068 132.955 743.874 132.955C752.681 132.955 760.636 130.729 767.738 126.278C774.888 121.828 780.546 115.27 784.713 106.605C788.927 97.9403 791.034 87.3106 791.034 74.7159Z" fill="#F3F7F6"/>
<path d="M837.696 147.443V1.98828H855.31V74.1474H857.014L922.355 1.98828H945.367L884.287 67.6133L945.367 147.443H924.06L873.492 79.8292L855.31 100.284V147.443H837.696Z" fill="#F3F7F6"/>
</svg>
