<svg width="60" height="36" viewBox="0 0 60 36" fill="none" xmlns="http://www.w3.org/2000/svg">
<path d="M15.295 0H0.205945C0.0832694 8.17842 -0.113012 25.5658 0.0832694 29.6877C0.27955 33.8096 3.68175 35.249 5.35832 35.4535H31.6109V21.3457L5.35832 33.1226C2.11968 33.1226 2.04608 30.8327 2.41411 29.6877L15.295 0Z" fill="#9FB2AC"/>
<path d="M15.295 0H0.205945C0.0832694 8.17842 -0.113012 25.5658 0.0832694 29.6877C0.27955 33.8096 3.68175 35.249 5.35832 35.4535H31.6109V21.3457L5.35832 33.1226C2.11968 33.1226 2.04608 30.8327 2.41411 29.6877L15.295 0Z" fill="black" fill-opacity="0.2"/>
<path d="M53.2325 35.8097C51.8297 35.8097 50.7358 35.4642 49.9506 34.7733C49.1655 34.0719 48.7729 33.046 48.7729 31.6956C48.7729 30.3347 49.1655 29.3088 49.9506 28.6179C50.7358 27.9165 51.8297 27.5658 53.2325 27.5658H57.1581C58.0793 27.5658 58.7807 27.7857 59.2622 28.2254C59.7542 28.6546 60.0002 29.2722 60.0002 30.0783C60.0002 31.7218 59.0528 32.5436 57.1581 32.5436H51.2225C51.4424 33.5171 52.1123 34.0039 53.2325 34.0039H59.592V35.8097H53.2325ZM53.2325 29.3716C52.1542 29.3716 51.4895 29.827 51.2382 30.7378H57.0482C57.2575 30.7378 57.4198 30.675 57.5349 30.5493C57.6606 30.4237 57.7234 30.251 57.7234 30.0311C57.7234 29.5915 57.4983 29.3716 57.0482 29.3716H53.2325Z" fill="#9FB2AC"/>
<path d="M53.2325 35.8097C51.8297 35.8097 50.7358 35.4642 49.9506 34.7733C49.1655 34.0719 48.7729 33.046 48.7729 31.6956C48.7729 30.3347 49.1655 29.3088 49.9506 28.6179C50.7358 27.9165 51.8297 27.5658 53.2325 27.5658H57.1581C58.0793 27.5658 58.7807 27.7857 59.2622 28.2254C59.7542 28.6546 60.0002 29.2722 60.0002 30.0783C60.0002 31.7218 59.0528 32.5436 57.1581 32.5436H51.2225C51.4424 33.5171 52.1123 34.0039 53.2325 34.0039H59.592V35.8097H53.2325ZM53.2325 29.3716C52.1542 29.3716 51.4895 29.827 51.2382 30.7378H57.0482C57.2575 30.7378 57.4198 30.675 57.5349 30.5493C57.6606 30.4237 57.7234 30.251 57.7234 30.0311C57.7234 29.5915 57.4983 29.3716 57.0482 29.3716H53.2325Z" fill="black" fill-opacity="0.2"/>
<path d="M38.0537 35.7312V27.6444H45.1041C46.0253 27.6444 46.6953 27.8747 47.114 28.3353C47.5432 28.7854 47.7578 29.3821 47.7578 30.1254V35.7312H45.481V30.3923C45.481 29.7642 45.1669 29.4502 44.5388 29.4502H40.3306V35.7312H38.0537Z" fill="#9FB2AC"/>
<path d="M38.0537 35.7312V27.6444H45.1041C46.0253 27.6444 46.6953 27.8747 47.114 28.3353C47.5432 28.7854 47.7578 29.3821 47.7578 30.1254V35.7312H45.481V30.3923C45.481 29.7642 45.1669 29.4502 44.5388 29.4502H40.3306V35.7312H38.0537Z" fill="black" fill-opacity="0.2"/>
<path d="M34.3648 35.7312V27.6444H36.6417V35.7312H34.3648ZM34.3491 26.3096V24.5352H36.6574V26.3096H34.3491Z" fill="#9FB2AC"/>
<path d="M34.3648 35.7312V27.6444H36.6417V35.7312H34.3648ZM34.3491 26.3096V24.5352H36.6574V26.3096H34.3491Z" fill="black" fill-opacity="0.2"/>
<path d="M50.666 6L50.666 16.7118H52.6405L52.6405 13.7305H56.0176L57.6244 16.7118H59.844L58.1827 13.6406L57.2567 12.0226H52.6405L52.6405 10.7042H57.2567L57.3521 8.99631H52.6405L52.6405 6H50.666Z" fill="#9FB2AC"/>
<path d="M50.666 6L50.666 16.7118H52.6405L52.6405 13.7305H56.0176L57.6244 16.7118H59.844L58.1827 13.6406L57.2567 12.0226H52.6405L52.6405 10.7042H57.2567L57.3521 8.99631H52.6405L52.6405 6H50.666Z" fill="black" fill-opacity="0.2"/>
<path d="M43.3341 16.8643C42.1176 16.8643 41.1689 16.5347 40.4881 15.8755C39.8072 15.2063 39.4668 14.2275 39.4668 12.9391C39.4668 11.6407 39.8072 10.6619 40.4881 10.0027C41.169 9.33357 42.1176 8.99898 43.3341 8.99898H45.8533C47.0698 8.99898 48.0184 9.33357 48.6993 10.0027C49.3801 10.6619 49.7206 11.6407 49.7206 12.9391C49.7206 14.2275 49.3801 15.2063 48.6993 15.8755C48.0184 16.5347 47.0697 16.8643 45.8532 16.8643H43.3341ZM43.3341 15.1414H45.8533C46.4433 15.1414 46.8927 14.9616 47.2014 14.6021C47.5191 14.2425 47.678 13.6882 47.678 12.9391C47.678 12.1801 47.5191 11.6208 47.2014 11.2612C46.8927 10.9016 46.4434 10.7219 45.8533 10.7219H43.3341C42.744 10.7219 42.2901 10.9016 41.9724 11.2612C41.6637 11.6208 41.5094 12.1801 41.5094 12.9391C41.5094 13.6882 41.6637 14.2425 41.9723 14.6021C42.2901 14.9616 42.744 15.1414 43.3341 15.1414Z" fill="#9FB2AC"/>
<path d="M43.3341 16.8643C42.1176 16.8643 41.1689 16.5347 40.4881 15.8755C39.8072 15.2063 39.4668 14.2275 39.4668 12.9391C39.4668 11.6407 39.8072 10.6619 40.4881 10.0027C41.169 9.33357 42.1176 8.99898 43.3341 8.99898H45.8533C47.0698 8.99898 48.0184 9.33357 48.6993 10.0027C49.3801 10.6619 49.7206 11.6407 49.7206 12.9391C49.7206 14.2275 49.3801 15.2063 48.6993 15.8755C48.0184 16.5347 47.0697 16.8643 45.8532 16.8643H43.3341ZM43.3341 15.1414H45.8533C46.4433 15.1414 46.8927 14.9616 47.2014 14.6021C47.5191 14.2425 47.678 13.6882 47.678 12.9391C47.678 12.1801 47.5191 11.6208 47.2014 11.2612C46.8927 10.9016 46.4434 10.7219 45.8533 10.7219H43.3341C42.744 10.7219 42.2901 10.9016 41.9724 11.2612C41.6637 11.6208 41.5094 12.1801 41.5094 12.9391C41.5094 13.6882 41.6637 14.2425 41.9723 14.6021C42.2901 14.9616 42.744 15.1414 43.3341 15.1414Z" fill="black" fill-opacity="0.2"/>
<path d="M36.0182 16.8551C35.2284 16.8551 34.6474 16.6404 34.2752 16.2109C33.903 15.7715 33.7169 15.1972 33.7169 14.488L33.7169 10.8625H31.688L31.688 9.13963H33.7169L33.717 6.77254H35.6915L35.6914 9.13963H38.6055L38.6055 10.8625H35.6914L35.6914 14.2184C35.6914 14.8276 35.9638 15.1323 36.5085 15.1323H38.9868L38.9868 16.8551H36.0182Z" fill="#9FB2AC"/>
<path d="M36.0182 16.8551C35.2284 16.8551 34.6474 16.6404 34.2752 16.2109C33.903 15.7715 33.7169 15.1972 33.7169 14.488L33.7169 10.8625H31.688L31.688 9.13963H33.7169L33.717 6.77254H35.6915L35.6914 9.13963H38.6055L38.6055 10.8625H35.6914L35.6914 14.2184C35.6914 14.8276 35.9638 15.1323 36.5085 15.1323H38.9868L38.9868 16.8551H36.0182Z" fill="black" fill-opacity="0.2"/>
<path d="M20.2314 17L20.2315 15.0524L28.0614 15.0674C28.4608 15.0674 28.7649 14.9675 28.9737 14.7677C29.1916 14.558 29.3005 14.2234 29.3005 13.764C29.3005 13.3045 29.1916 12.9749 28.9737 12.7752C28.7649 12.5654 28.4608 12.4606 28.0614 12.4606H23.1864C22.1787 12.4606 21.3935 12.1959 20.8306 11.6666C20.2769 11.1272 20 10.3382 20 9.29946C20 8.26074 20.2769 7.47671 20.8306 6.94736C21.3935 6.40802 22.1788 6.13835 23.1864 6.13835H30.8393L30.8393 8.08596L23.4179 8.07097C23.0276 8.07097 22.7234 8.17085 22.5056 8.37061C22.2877 8.56037 22.1787 8.86999 22.1787 9.29946C22.1787 9.72894 22.2877 10.0435 22.5056 10.2433C22.7234 10.4331 23.0275 10.528 23.4179 10.528H28.2929C29.3006 10.528 30.0813 10.8026 30.635 11.3519C31.1979 11.8913 31.4793 12.6953 31.4793 13.764C31.4793 14.8227 31.1979 15.6267 30.635 16.176C30.0813 16.7253 29.3005 17 28.2929 17H20.2314Z" fill="#9FB2AC"/>
<path d="M20.2314 17L20.2315 15.0524L28.0614 15.0674C28.4608 15.0674 28.7649 14.9675 28.9737 14.7677C29.1916 14.558 29.3005 14.2234 29.3005 13.764C29.3005 13.3045 29.1916 12.9749 28.9737 12.7752C28.7649 12.5654 28.4608 12.4606 28.0614 12.4606H23.1864C22.1787 12.4606 21.3935 12.1959 20.8306 11.6666C20.2769 11.1272 20 10.3382 20 9.29946C20 8.26074 20.2769 7.47671 20.8306 6.94736C21.3935 6.40802 22.1788 6.13835 23.1864 6.13835H30.8393L30.8393 8.08596L23.4179 8.07097C23.0276 8.07097 22.7234 8.17085 22.5056 8.37061C22.2877 8.56037 22.1787 8.86999 22.1787 9.29946C22.1787 9.72894 22.2877 10.0435 22.5056 10.2433C22.7234 10.4331 23.0275 10.528 23.4179 10.528H28.2929C29.3006 10.528 30.0813 10.8026 30.635 11.3519C31.1979 11.8913 31.4793 12.6953 31.4793 13.764C31.4793 14.8227 31.1979 15.6267 30.635 16.176C30.0813 16.7253 29.3005 17 28.2929 17H20.2314Z" fill="black" fill-opacity="0.2"/>
</svg>
