<svg width="30" height="30" viewBox="0 0 30 30" fill="none" xmlns="http://www.w3.org/2000/svg">
<g clip-path="url(#clip0_261_985)">
<path d="M14.6 0.39991C5.90833 0.854076 0.17083 7.67074 0.53333 16.2666C0.691663 20.0291 2.20416 23.2666 2.5625 26.8374C2.65416 27.7624 2.3875 28.9041 3.45416 29.3082C4.76666 29.8041 6.77916 28.9707 7.87916 28.2082C8.25416 27.9541 8.6125 27.6582 8.8875 27.2916C10.025 28.0457 11.1042 28.7749 12.4583 29.0999C18.4208 30.5291 24.9542 27.2582 27.8583 22.0041C33.3167 12.1332 25.9375 -0.191757 14.6 0.39991ZM11.225 20.9999C10.7542 21.3666 10.3 21.8666 9.77916 22.1541C9.025 22.5582 8.79166 22.1374 8.50833 21.4707C7.61666 19.3499 7.50833 15.7374 8.02916 13.5166C8.72916 10.4957 11.0667 7.83741 14.2792 7.55408C17.5292 7.26658 20.5458 8.91658 21.9083 11.8957C24.925 18.5249 17.2042 25.0707 11.225 21.0041V20.9999Z" fill="#F3F7F6"/>
</g>
<defs>
<clipPath id="clip0_261_985">
<rect width="30" height="30" fill="white"/>
</clipPath>
</defs>
</svg>
