<svg width="30" height="30" viewBox="0 0 30 30" fill="none" xmlns="http://www.w3.org/2000/svg">
<g clip-path="url(#clip0_261_987)">
<mask id="mask0_261_987" style="mask-type:luminance" maskUnits="userSpaceOnUse" x="0" y="0" width="30" height="30">
<path d="M29.8514 0H0.148438V30H29.8514V0Z" fill="white"/>
</mask>
<g mask="url(#mask0_261_987)">
<path fill-rule="evenodd" clip-rule="evenodd" d="M2.23639 2.10883C0.148438 4.21767 0.148438 7.61178 0.148438 14.4V15.6C0.148438 22.3882 0.148438 25.7823 2.23639 27.8912C4.32435 30 7.68485 30 14.4059 30H15.594C22.315 30 25.6755 30 27.7635 27.8912C29.8514 25.7823 29.8514 22.3882 29.8514 15.6V14.4C29.8514 7.61178 29.8514 4.21767 27.7635 2.10883C25.6755 0 22.315 0 15.594 0H14.4059C7.68485 0 4.32435 0 2.23639 2.10883ZM5.16087 9.12507C5.32174 16.9251 9.1831 21.6125 15.9529 21.6125H16.3366V17.15C18.8243 17.4 20.7053 19.2376 21.4603 21.6125H24.9752C24.0099 18.0626 21.4726 16.1 19.8885 15.35C21.4726 14.4251 23.7004 12.1751 24.2325 9.12507H21.0394C20.3463 11.6001 18.2921 13.85 16.3366 14.0625V9.12507H13.1435V17.775C11.1633 17.2751 8.66333 14.8501 8.55194 9.12507H5.16087Z" fill="#F3F7F6"/>
</g>
</g>
<defs>
<clipPath id="clip0_261_987">
<rect width="30" height="30" fill="white"/>
</clipPath>
</defs>
</svg>
