<svg width="295" height="84" viewBox="0 0 295 84" fill="none" xmlns="http://www.w3.org/2000/svg">
<path d="M36.1799 0H0.487155C0.196969 19.2459 -0.267323 60.1627 0.196969 69.8625C0.66129 79.5624 8.70912 82.9499 12.6749 83.431H74.7748V50.2319L12.6749 77.9458C5.01408 77.9458 4.83997 72.557 5.71053 69.8625L36.1799 0Z" fill="#F3F7F6"/>
<path d="M50.3226 10.5147L23.4916 56.6887C21.9357 59.3661 25.0089 62.3349 27.6533 60.709L67.8256 36.0117C69.2307 35.1476 69.6659 33.3141 68.7976 31.9161L55.4566 10.4397C54.2674 8.52526 51.455 8.56635 50.3226 10.5147Z" fill="#F3F7F6"/>
<path d="M143.218 58.4893C139.023 58.4893 135.751 57.4615 133.402 55.4057C131.054 53.3186 129.88 50.2659 129.88 46.2477C129.88 42.1982 131.054 39.1455 133.402 37.0896C135.751 35.0025 139.023 33.959 143.218 33.959H154.96C157.715 33.959 159.813 34.613 161.253 35.9214C162.725 37.1985 163.461 39.0363 163.461 41.4349C163.461 46.3253 160.627 48.7707 154.96 48.7707H137.207C137.864 51.6677 139.868 53.1163 143.218 53.1163H162.239V58.4893H143.218ZM143.218 39.3323C139.993 39.3323 138.005 40.6874 137.254 43.3973H154.631C155.257 43.3973 155.743 43.2105 156.087 42.8367C156.463 42.463 156.65 41.9488 156.65 41.2948C156.65 39.9864 155.977 39.3323 154.631 39.3323H143.218Z" fill="#F3F7F6"/>
<path d="M97.8203 58.2549V34.1914H118.908C121.663 34.1914 123.667 34.8767 124.92 36.2473C126.203 37.5869 126.845 39.3624 126.845 41.5739V58.2549H120.035V42.3684C120.035 40.4994 119.096 39.5648 117.217 39.5648H104.63V58.2549H97.8203Z" fill="#F3F7F6"/>
<path d="M86.7852 58.2563V34.1929H93.5954V58.2563H86.7852ZM86.7383 30.2213V24.9414H93.6424V30.2213H86.7383Z" fill="#F3F7F6"/>
<path d="M267.145 25.3496V57.224H273.05V48.3526H283.151L287.958 57.224H294.595L289.627 48.085L286.857 43.2705H273.05V39.3478H286.857L287.141 34.2657H273.05V25.3496H267.145Z" fill="#F3F7F6"/>
<path d="M245.215 57.6775C241.576 57.6775 238.738 56.6967 236.702 54.7352C234.666 52.7439 233.647 49.8314 233.647 45.9976C233.647 42.1341 234.666 39.2216 236.702 37.2601C238.738 35.2691 241.576 34.2734 245.215 34.2734H252.749C256.388 34.2734 259.225 35.2691 261.262 37.2601C263.298 39.2216 264.316 42.1341 264.316 45.9976C264.316 49.8314 263.298 52.7439 261.261 54.7352C259.225 56.6967 256.388 57.6775 252.749 57.6775H245.215ZM245.215 52.5508H252.749C254.514 52.5508 255.858 52.0158 256.782 50.9461C257.732 49.876 258.207 48.2267 258.207 45.9976C258.207 43.7392 257.732 42.0746 256.782 41.0049C255.858 39.9348 254.514 39.3998 252.749 39.3998H245.215C243.45 39.3998 242.092 39.9348 241.141 41.0049C240.218 42.0746 239.757 43.7392 239.757 45.9976C239.757 48.2267 240.218 49.876 241.141 50.9461C242.092 52.0158 243.45 52.5508 245.215 52.5508Z" fill="#F3F7F6"/>
<path d="M223.331 57.6493C220.969 57.6493 219.231 57.0105 218.118 55.7325C217.005 54.4247 216.448 52.7158 216.448 50.6058V39.8177H210.38V34.691H216.448L216.449 27.6475H222.354L222.354 34.691H231.07V39.8177H222.354V49.8033C222.354 51.6163 223.169 52.5227 224.798 52.5227H232.211V57.6493H223.331Z" fill="#F3F7F6"/>
<path d="M176.115 58.0809V52.2856L199.534 52.33C200.729 52.33 201.639 52.033 202.263 51.4385C202.915 50.8145 203.241 49.8188 203.241 48.4515C203.241 47.0846 202.915 46.1038 202.263 45.5096C201.639 44.8853 200.729 44.5734 199.534 44.5734H184.953C181.939 44.5734 179.591 43.7858 177.907 42.2105C176.251 40.6058 175.423 38.258 175.423 35.1669C175.423 32.0762 176.251 29.7433 177.907 28.168C179.591 26.5633 181.939 25.7607 184.953 25.7607H207.843V31.556L185.646 31.5114C184.478 31.5114 183.569 31.8087 182.917 32.4032C182.265 32.9677 181.939 33.8892 181.939 35.1669C181.939 36.445 182.265 37.3811 182.917 37.9756C183.569 38.5401 184.478 38.8225 185.646 38.8225H200.227C203.241 38.8225 205.576 39.6399 207.232 41.2744C208.916 42.8794 209.757 45.2718 209.757 48.4515C209.757 51.6018 208.916 53.9945 207.232 55.629C205.576 57.2635 203.241 58.0809 200.227 58.0809H176.115Z" fill="#F3F7F6"/>
</svg>
